<?xml version="1.0" encoding="UTF-8" standalone="no"?>
<!-- Created with Inkscape (http://www.inkscape.org/) -->

<svg
   xmlns:dc="http://purl.org/dc/elements/1.1/"
   xmlns:cc="http://creativecommons.org/ns#"
   xmlns:rdf="http://www.w3.org/1999/02/22-rdf-syntax-ns#"
   xmlns:svg="http://www.w3.org/2000/svg"
   xmlns="http://www.w3.org/2000/svg"
   xmlns:sodipodi="http://sodipodi.sourceforge.net/DTD/sodipodi-0.dtd"
   xmlns:inkscape="http://www.inkscape.org/namespaces/inkscape"
   id="svg2"
   version="1.1"
   inkscape:version="0.92.3 (2405546, 2018-03-11)"
   width="56"
   height="24"
   xml:space="preserve"
   sodipodi:docname="action_bar_logo.svg"><metadata
     id="metadata8"><rdf:RDF><cc:Work
         rdf:about=""><dc:format>image/svg+xml</dc:format><dc:type
           rdf:resource="http://purl.org/dc/dcmitype/StillImage" /><dc:title></dc:title></cc:Work></rdf:RDF></metadata><defs
     id="defs6"><clipPath
       clipPathUnits="userSpaceOnUse"
       id="clipPath16"><path
         d="M 0,144 H 216 V 0 H 0 Z"
         id="path18"
         inkscape:connector-curvature="0" /></clipPath><filter
       id="filter4759"
       inkscape:label="Drop Shadow"
       style="color-interpolation-filters:sRGB"><feFlood
         id="feFlood4761"
         flood-opacity="0.5"
         flood-color="rgb(0,0,0)"
         result="flood" /><feComposite
         id="feComposite4763"
         in2="SourceGraphic"
         in="flood"
         operator="in"
         result="composite1" /><feGaussianBlur
         id="feGaussianBlur4765"
         stdDeviation="0.2"
         result="blur" /><feOffset
         id="feOffset4767"
         dx="0.2"
         dy="0.2"
         result="offset" /><feComposite
         id="feComposite4769"
         in2="offset"
         in="SourceGraphic"
         operator="over"
         result="composite2" /></filter></defs><sodipodi:namedview
     pagecolor="#1081c7"
     bordercolor="#666666"
     borderopacity="1"
     objecttolerance="10"
     gridtolerance="10"
     guidetolerance="10"
     inkscape:pageopacity="0"
     inkscape:pageshadow="2"
     inkscape:window-width="1309"
     inkscape:window-height="907"
     id="namedview4"
     showgrid="false"
     fit-margin-top="0"
     fit-margin-left="0"
     fit-margin-right="1"
     fit-margin-bottom="0"
     inkscape:zoom="11.313708"
     inkscape:cx="10.658484"
     inkscape:cy="23.7618"
     inkscape:window-x="576"
     inkscape:window-y="67"
     inkscape:window-maximized="0"
     inkscape:current-layer="g10"
     inkscape:pagecheckerboard="true" /><g
     id="g10"
     inkscape:groupmode="layer"
     inkscape:label="S285_sas100K_hires"
     transform="matrix(1.25,0,0,-1.25,-46.26197,197.12481)"><g
       id="g3936"
       transform="matrix(0.49999996,0,0,0.49999996,15.70479,66.449932)"
       style="fill:#000000;stroke-width:2.00000024"><path
         d="M 64.979243,169.56504 64.442,170.21377 c -0.74617,0.88751 -1.961987,0.88312 -2.858269,0.14309 -0.902426,-0.74266 -1.166659,-1.97252 -0.424,-2.87319 9.17e-4,-0.002 0.09042,-0.10885 0.244919,-0.29583"
         style="fill:#000000;fill-opacity:1;fill-rule:nonzero;stroke:none;stroke-width:2.00000024"
         id="path22"
         inkscape:connector-curvature="0" /><path
         inkscape:connector-curvature="0"
         id="path26"
         style="fill:#000000;fill-opacity:1;fill-rule:nonzero;stroke:none;stroke-width:2.00000024"
         d="m 61.388147,167.20706 c 1.710046,-2.05504 4.007371,-4.82026 4.007371,-4.82026 2.86617,-3.47715 1.584514,-7.7628 -2.301714,-10.20321 -3.423603,-2.14985 -9.709865,-1.38436 -11.875513,2.1437 1.678443,-4.95194 7.309831,-8.19119 13.535521,-6.63389 5.399636,1.35013 11.433077,8.29039 4.834303,16.29548 l -4.901897,5.91931" /><g
         transform="matrix(0.87784685,0,0,0.87784685,61.919683,159.76766)"
         id="g28"
         style="fill:#000000;stroke-width:2.00000024"><path
           inkscape:connector-curvature="0"
           id="path30"
           style="fill:#000000;fill-opacity:1;fill-rule:nonzero;stroke:none;stroke-width:2.00000024"
           d="m 0,0 c -1.896,2.28 -4.211,5.063 -4.211,5.063 -3.264,3.961 -1.804,8.844 2.622,11.624 3.9,2.45 11.062,1.579 13.528,-2.443 -1.912,5.644 -8.327,9.331 -15.419,7.558 -6.15,-1.536 -13.023,-9.441 -5.507,-18.563 l 5.325,-6.432" /></g><path
         d="m 57.961647,157.83025 1.114866,-1.34574 c 0.74617,-0.8875 1.96111,-0.88136 2.858269,-0.14221 0.901549,0.74266 1.166658,1.97253 0.424,2.87495 -0.0027,0.002 -0.438923,0.52934 -1.072728,1.28956"
         style="fill:#000000;fill-opacity:1;fill-rule:nonzero;stroke:none;stroke-width:2.00000024"
         id="path34"
         inkscape:connector-curvature="0" /></g></g></svg>