<?xml version="1.0" encoding="utf-8"?>
<!-- Generator: Adobe Illustrator 24.0.2, SVG Export Plug-In . SVG Version: 6.00 Build 0)  -->
<svg version="1.1" id="Layer_1" xmlns="http://www.w3.org/2000/svg" xmlns:xlink="http://www.w3.org/1999/xlink" x="0px" y="0px"
	 width="124.2px" height="51.2px" viewBox="0 0 124.2 51.2" enable-background="new 0 0 124.2 51.2" xml:space="preserve">
<path id="XMLID_178_" fill="#FFFFFF" d="M44.3,29.6c0.2,5,4.2,6.6,8.5,6.6c3.2,0,7.6-0.8,7.6-5.1c0-4.3-5.1-5.1-10.3-6.3
	c-5.1-1.2-10.3-3.1-10.3-9.6c0-6.8,6.3-9.7,11.8-9.7c7,0,12.5,2.4,12.9,10.6h-5.2c-0.4-4.3-3.9-5.7-7.3-5.7c-3.1,0-6.7,0.9-6.7,4.3
	c0,4,5.5,4.7,10.3,5.9c5.2,1.2,10.3,3.1,10.3,9.7c0,8.1-7,10.7-13.4,10.7c-7.1,0-13.1-3.1-13.4-11.5H44.3z M88.1,28.5
	c0,3.1-2.8,7.7-9.6,7.7c-3.2,0-6.1-1.3-6.1-5c0-4.1,2.9-5.4,6.4-6.1c3.5-0.7,7.4-0.7,9.4-2.3V28.5z M96.6,35.8
	c-0.7,0.3-1.2,0.3-1.6,0.3c-1.7,0-1.7-1.2-1.7-3.8V14.9c0-7.9-6.2-9.3-11.8-9.3c-7,0-13.1,3-13.4,11.4h5.2c0.2-5,3.5-6.4,7.9-6.4
	c3.3,0,7,0.8,7,5.6c0,4.2-4.9,3.8-10.6,5c-5.4,1.1-10.7,2.8-10.7,10.4c0,6.8,4.7,9.5,10.4,9.5c4.4,0,8.2-1.6,11.1-5.3
	c0,3.7,1.7,5.3,4.4,5.3c1.6,0,2.8-0.3,3.7-0.9V35.8z M101.4,29.6c0.2,5,4.2,6.6,8.5,6.6c3.2,0,7.6-0.8,7.6-5.1
	c0-4.3-5.1-5.1-10.3-6.3c-5.1-1.2-10.3-3.1-10.3-9.6c0-6.8,6.3-9.7,11.8-9.7c7,0,12.5,2.4,12.9,10.6h-5.2c-0.4-4.3-3.9-5.7-7.3-5.7
	c-3.1,0-6.7,0.9-6.7,4.3c0,4,5.5,4.7,10.3,5.9c5.2,1.2,10.3,3.1,10.3,9.7c0,8.1-7,10.7-13.4,10.7c-7.1,0-13.1-3.1-13.4-11.5H101.4z
	 M22.4,15.6l-0.9-1c-1.2-1.4-3.2-1.4-4.6-0.2c-1.5,1.2-1.9,3.2-0.7,4.6c0,0,0.1,0.2,0.4,0.5l0,0c2.7,3.3,6.4,7.7,6.4,7.7
	c4.6,5.6,2.5,12.5-3.7,16.4C13.9,47,3.8,45.8,0.3,40.1C3,48.1,12,53.3,22.1,50.8c8.7-2.2,18.4-13.3,7.8-26.2l-7.9-9.5 M11.1,34.5
	l1.8,2.2c1.2,1.4,3.2,1.4,4.6,0.2c1.4-1.2,1.9-3.2,0.7-4.6c0,0-0.7-0.8-1.7-2.1l1,1.2c-2.7-3.2-5.9-7.1-5.9-7.1
	C6.9,18.6,9,11.7,15.3,7.8c5.5-3.5,15.6-2.2,19.1,3.4c-2.7-8-11.8-13.2-21.8-10.7C3.9,2.8-5.8,13.9,4.8,26.8l7.5,9.1 M120.9,40.2
	c0-1,0.7-1.7,1.6-1.7c0.9,0,1.6,0.7,1.6,1.7c0,1-0.7,1.7-1.6,1.7C121.6,41.9,120.9,41.2,120.9,40.2z M122.5,42.2c1.1,0,2-0.8,2-2
	c0-1.2-0.9-2-2-2c-1.1,0-2,0.9-2,2C120.5,41.4,121.4,42.2,122.5,42.2z M122.1,40.4h0.4l0.6,1h0.4l-0.7-1c0.3,0,0.6-0.2,0.6-0.6
	c0-0.5-0.3-0.7-0.8-0.7h-0.9v2.3h0.3V40.4z M122.1,40.1v-0.7h0.5c0.2,0,0.5,0.1,0.5,0.3c0,0.4-0.3,0.4-0.6,0.4H122.1z M35.6,40.2
	c0-1,0.7-1.7,1.6-1.7c0.9,0,1.6,0.7,1.6,1.7c0,1-0.7,1.7-1.6,1.7C36.3,41.9,35.6,41.2,35.6,40.2z M37.3,42.2c1.1,0,2-0.8,2-2
	c0-1.2-0.9-2-2-2c-1.1,0-2,0.9-2,2C35.2,41.4,36.2,42.2,37.3,42.2z M36.8,40.4h0.4l0.6,1h0.4l-0.7-1c0.3,0,0.6-0.2,0.6-0.6
	c0-0.5-0.3-0.7-0.8-0.7h-0.9v2.3h0.4V40.4z M36.8,40.1v-0.7h0.5c0.2,0,0.5,0.1,0.5,0.3c0,0.4-0.3,0.4-0.6,0.4H36.8z"/>
</svg>
