<?xml version="1.0" encoding="UTF-8" standalone="no"?>
<!-- Created with Inkscape (http://www.inkscape.org/) -->

<svg
   xmlns:dc="http://purl.org/dc/elements/1.1/"
   xmlns:cc="http://creativecommons.org/ns#"
   xmlns:rdf="http://www.w3.org/1999/02/22-rdf-syntax-ns#"
   xmlns:svg="http://www.w3.org/2000/svg"
   xmlns="http://www.w3.org/2000/svg"
   xmlns:sodipodi="http://sodipodi.sourceforge.net/DTD/sodipodi-0.dtd"
   xmlns:inkscape="http://www.inkscape.org/namespaces/inkscape"
   width="71.80014mm"
   height="54.355652mm"
   viewBox="0 0 71.80014 54.355652"
   version="1.1"
   id="svg930"
   inkscape:version="0.92.3 (2405546, 2018-03-11)"
   sodipodi:docname="toolbar_backdrop_top_left.svg">
  <defs
     id="defs924" />
  <sodipodi:namedview
     id="base"
     pagecolor="#ffffff"
     bordercolor="#666666"
     borderopacity="1.0"
     inkscape:pageopacity="0.0"
     inkscape:pageshadow="2"
     inkscape:zoom="0.35"
     inkscape:cx="146.95033"
     inkscape:cy="101.45951"
     inkscape:document-units="mm"
     inkscape:current-layer="layer1"
     showgrid="false"
     inkscape:pagecheckerboard="true"
     fit-margin-top="0"
     fit-margin-left="0"
     fit-margin-right="0"
     fit-margin-bottom="0"
     inkscape:window-width="900"
     inkscape:window-height="1052"
     inkscape:window-x="835"
     inkscape:window-y="28"
     inkscape:window-maximized="0" />
  <metadata
     id="metadata927">
    <rdf:RDF>
      <cc:Work
         rdf:about="">
        <dc:format>image/svg+xml</dc:format>
        <dc:type
           rdf:resource="http://purl.org/dc/dcmitype/StillImage" />
        <dc:title></dc:title>
      </cc:Work>
    </rdf:RDF>
  </metadata>
  <g
     inkscape:label="Layer 1"
     inkscape:groupmode="layer"
     id="layer1"
     transform="translate(-69.099931,-121.32218)">
    <path
       style="fill:#01111d;stroke-width:0.02490799"
       inkscape:connector-curvature="0"
       id="path169"
       d="m 88.452312,141.59993 c 0.560938,1.40818 1.963285,2.25309 3.365631,2.25309 1.963285,-0.28164 3.085162,-1.97145 2.804693,-3.66126 0,-1.40818 -0.841408,-2.25309 -1.682816,-2.81636 -1.402346,1.12654 -2.524223,2.25308 -3.92657,3.37963 -0.280469,0.28163 -0.280469,0.56326 -0.560938,0.8449 z" />
    <path
       style="fill:#00518a;stroke-width:0.02490799"
       inkscape:connector-curvature="0"
       id="path171"
       d="m 106.96328,136.81213 c 0.84141,0 1.68282,0.56327 1.96329,1.40818 0.28047,0.8449 -0.56094,1.68981 -1.40235,1.97145 -0.8414,0 -1.68281,-0.56328 -1.96328,-1.40818 -0.28047,-0.84491 0.56094,-1.68981 1.40234,-1.97145 z m -0.28046,-3.09799 c -2.8047,0.28163 -4.48751,2.81635 -4.20704,5.35107 0.28047,2.81636 2.80469,4.50617 5.32891,4.22454 2.8047,-0.28164 4.48751,-2.81636 4.20704,-5.35108 -0.28047,-2.53472 -2.80469,-4.50617 -5.32891,-4.22453 z" />
    <path
       style="fill:#00518a;stroke-width:0.02490799"
       inkscape:connector-curvature="0"
       id="path175"
       d="m 83.123395,138.22031 c -1.682815,-2.25309 -1.121877,-5.63271 1.121878,-7.04089 2.243754,-1.68981 5.328916,-1.12654 7.011732,1.12654 1.682815,2.25309 1.121877,5.35108 -1.121877,7.04089 -2.243755,1.68981 -5.328917,1.12654 -7.011733,-1.12654 z m -2.524223,1.68981 c 2.804693,3.66126 7.85314,4.50617 11.499241,1.68981 3.646099,-2.81635 4.487509,-7.88579 1.682815,-11.54705 -2.524223,-3.37963 -7.85314,-4.22453 -11.49924,-1.40818 -3.646101,2.53472 -4.487509,7.60416 -1.682816,11.26542 z" />
    <path
       style="fill:#00518a;stroke-width:0.02490799"
       inkscape:connector-curvature="0"
       id="path181"
       d="m 137.81491,144.97956 c -0.28047,0 -0.56094,0 -0.56094,0.28163 l -10.0969,-5.63271 c 2.8047,-5.63271 4.20704,-11.82869 3.6461,-18.3063 h -3.08516 c 1.12188,16.33486 -10.09689,31.54317 -26.64458,34.35953 l -0.56094,-3.9429 c 0,-0.84491 -0.841407,-1.40818 -1.682814,-1.40818 -0.84141,0 -1.402347,0.84491 -1.402347,1.97145 l 0.560937,3.9429 c -11.499239,0.56327 -22.157072,-4.78781 -28.607865,-13.51851 v 5.06944 c 2.243754,2.53472 5.048447,4.78781 7.85314,6.47762 l -6.450794,13.23687 c -0.841408,0.28163 -1.402346,0.56327 -1.682816,1.12654 v 2.53472 c 0.560939,0.84491 1.402347,1.40818 2.524224,1.40818 1.402346,-0.28164 2.524223,-1.40818 2.243754,-2.81636 0,-0.28163 0,-0.56327 -0.280469,-0.8449 l 6.170324,-13.23687 c 5.609386,2.53472 11.77971,3.94289 18.230502,3.37962 l 1.682817,11.82869 c -0.560938,0.56327 -1.121876,1.40818 -0.841407,2.53472 0.280469,1.40818 1.402344,2.25309 2.804694,2.25309 1.40234,-0.28164 2.24375,-1.40818 2.24375,-2.81636 0,-0.56327 -0.56094,-1.12654 -0.84141,-1.68981 l -1.68281,-12.11033 c 10.37736,-1.68981 18.79144,-7.88579 24.12036,-16.33486 l 10.09689,5.63271 c 0.28047,1.40818 1.68282,2.53472 3.08516,2.25309 1.40235,-0.28164 2.24376,-1.40818 2.24376,-2.81636 -0.28047,-1.97144 -1.68282,-2.81635 -3.08516,-2.81635 z" />
  </g>
</svg>
