<?xml version="1.0" encoding="UTF-8" standalone="no"?>
<!-- Created with Inkscape (http://www.inkscape.org/) -->

<svg
   xmlns:dc="http://purl.org/dc/elements/1.1/"
   xmlns:cc="http://creativecommons.org/ns#"
   xmlns:rdf="http://www.w3.org/1999/02/22-rdf-syntax-ns#"
   xmlns:svg="http://www.w3.org/2000/svg"
   xmlns="http://www.w3.org/2000/svg"
   xmlns:sodipodi="http://sodipodi.sourceforge.net/DTD/sodipodi-0.dtd"
   xmlns:inkscape="http://www.inkscape.org/namespaces/inkscape"
   width="62.136959mm"
   height="84.700279mm"
   viewBox="0 0 62.136959 84.700279"
   version="1.1"
   id="svg5228"
   inkscape:version="0.92.3 (2405546, 2018-03-11)"
   sodipodi:docname="toolbar_backdrop_bottom_right.svg">
  <defs
     id="defs5222" />
  <sodipodi:namedview
     id="base"
     pagecolor="#ffffff"
     bordercolor="#666666"
     borderopacity="1.0"
     inkscape:pageopacity="0.0"
     inkscape:pageshadow="2"
     inkscape:zoom="0.35"
     inkscape:cx="-1062.5758"
     inkscape:cy="705.77781"
     inkscape:document-units="mm"
     inkscape:current-layer="layer1"
     showgrid="false"
     fit-margin-top="0"
     fit-margin-left="0"
     fit-margin-right="0"
     fit-margin-bottom="0"
     inkscape:pagecheckerboard="true"
     inkscape:window-width="1917"
     inkscape:window-height="1052"
     inkscape:window-x="0"
     inkscape:window-y="0"
     inkscape:window-maximized="0" />
  <metadata
     id="metadata5225">
    <rdf:RDF>
      <cc:Work
         rdf:about="">
        <dc:format>image/svg+xml</dc:format>
        <dc:type
           rdf:resource="http://purl.org/dc/dcmitype/StillImage" />
        <dc:title></dc:title>
      </cc:Work>
    </rdf:RDF>
  </metadata>
  <g
     inkscape:label="Layer 1"
     inkscape:groupmode="layer"
     id="layer1"
     transform="translate(-251.65771,-250.8701)">
    <path
       style="fill:#00518a;stroke-width:0.02490799"
       inkscape:connector-curvature="0"
       id="path173"
       d="m 293.32041,301.77412 c -1.68281,-2.25309 -1.12187,-5.35108 1.12188,-7.04089 2.24375,-1.68981 5.32892,-1.12654 7.01173,1.12654 1.68282,2.25309 1.12188,5.35108 -1.12188,7.04089 -2.24375,1.68981 -5.32891,1.12654 -7.01173,-1.12654 z m -2.52422,1.68981 c 2.80469,3.66126 7.85314,4.50617 11.49924,1.68981 3.6461,-2.81635 4.48751,-7.88579 1.68282,-11.54705 -2.8047,-3.66126 -7.85314,-4.50617 -11.49925,-1.68981 -3.6461,2.81635 -4.4875,7.88579 -1.68281,11.54705 z" />
    <path
       style="fill:#00518a;stroke-width:0.02490799"
       inkscape:connector-curvature="0"
       id="path177"
       d="m 290.51572,318.10898 c -0.56094,-0.84491 -0.28047,-1.68982 0.28047,-2.25309 0.84141,-0.56327 1.68281,-0.28163 2.24375,0.28164 0.56094,0.84491 0.28047,1.68981 -0.28047,2.25308 -0.8414,0.56327 -1.68281,0.28164 -2.24375,-0.28163 z m -2.52422,1.97145 c 1.40234,2.25308 4.4875,2.53471 6.73126,1.12654 2.24375,-1.40818 2.52422,-4.50617 1.12188,-6.75926 -1.40235,-2.25308 -4.48751,-2.53471 -6.73127,-1.12654 -2.24375,1.40818 -2.80469,4.50617 -1.12187,6.75926 z" />
    <path
       style="fill:#00518a;stroke-width:0.02490799"
       inkscape:connector-curvature="0"
       id="path179"
       d="m 306.78294,267.69622 -0.28047,-12.11032 c 1.12188,-0.84491 1.40235,-2.53472 0.28047,-3.66127 -0.84141,-1.12654 -2.52422,-1.40817 -3.6461,-0.56326 -1.12188,0.8449 -1.40235,2.53471 -0.56094,3.94289 0,0.28164 0.28047,0.28164 0.56094,0.56327 l 0.28047,12.11033 c -6.73127,0.56327 -13.46253,2.81635 -19.35238,7.04089 l -5.60939,-7.04089 c 0.28047,-0.84491 0,-1.68981 -0.56094,-2.25309 -0.84141,-1.12654 -2.52422,-1.40817 -3.6461,-0.28163 -1.12188,0.84491 -1.40235,2.53472 -0.28047,3.66126 0.56094,0.56327 1.40235,1.12654 2.24376,1.12654 l 5.60938,7.04089 c -9.25549,8.16743 -13.46252,19.99612 -12.34065,31.54317 l -13.18205,1.12655 c -0.84141,-1.12655 -2.52423,-1.12655 -3.64611,-0.28164 -1.12187,0.84491 -1.40234,2.53472 -0.28046,3.66126 0.8414,1.12654 2.52422,1.40818 3.6461,0.28164 0.28047,-0.28164 0.28047,-0.28164 0.56094,-0.56327 l 13.18205,-1.12654 c 1.12188,5.35107 3.36563,10.70214 7.01173,15.48995 l -9.53595,7.60416 c -0.84141,-0.28164 -1.40235,0 -2.24376,0.56327 h 7.01174 l 7.01173,-5.63271 c 1.96328,2.25308 4.20704,3.94289 6.45079,5.63271 h 6.73127 c -4.48751,-1.97145 -8.41408,-5.06944 -11.77971,-9.01234 0,0 0,0 0,0 0,0 0,0 0,0 0,0 -0.28047,-0.28163 -0.28047,-0.56327 -3.36564,-4.22453 -5.60939,-9.29397 -6.73127,-14.36341 l 4.48751,-0.28164 c 0.84141,0 1.68282,-0.8449 1.68282,-1.68981 0,-0.84491 -0.84141,-1.68981 -1.96329,-1.40818 l -4.76798,0.28164 c -1.12187,-10.98378 3.08517,-22.24921 12.34065,-29.85336 8.41408,-6.75926 18.79145,-8.7307 28.60787,-6.47762 v -3.37963 c -2.80469,-0.8449 -5.04845,-1.12654 -7.01173,-1.12654 z" />
  </g>
</svg>
