<?xml version="1.0" encoding="UTF-8" standalone="no"?>
<!-- Generator: Adobe Illustrator 19.0.0, SVG Export Plug-In . SVG Version: 6.00 Build 0)  -->

<svg
   xmlns:dc="http://purl.org/dc/elements/1.1/"
   xmlns:cc="http://creativecommons.org/ns#"
   xmlns:rdf="http://www.w3.org/1999/02/22-rdf-syntax-ns#"
   xmlns:svg="http://www.w3.org/2000/svg"
   xmlns="http://www.w3.org/2000/svg"
   xmlns:sodipodi="http://sodipodi.sourceforge.net/DTD/sodipodi-0.dtd"
   xmlns:inkscape="http://www.inkscape.org/namespaces/inkscape"
   version="1.1"
   id="Capa_1"
   x="0px"
   y="0px"
   viewBox="0 0 144 144"
   xml:space="preserve"
   sodipodi:docname="get-money.svg"
   width="144"
   height="144"
   inkscape:version="0.92.3 (unknown)"><metadata
   id="metadata46"><rdf:RDF><cc:Work
       rdf:about=""><dc:format>image/svg+xml</dc:format><dc:type
         rdf:resource="http://purl.org/dc/dcmitype/StillImage" /><dc:title></dc:title></cc:Work></rdf:RDF></metadata><defs
   id="defs44" /><sodipodi:namedview
   pagecolor="#ffffff"
   bordercolor="#666666"
   borderopacity="1"
   objecttolerance="10"
   gridtolerance="10"
   guidetolerance="10"
   inkscape:pageopacity="0"
   inkscape:pageshadow="2"
   inkscape:window-width="1116"
   inkscape:window-height="869"
   id="namedview42"
   showgrid="false"
   inkscape:zoom="2.8771931"
   inkscape:cx="80.551141"
   inkscape:cy="53.329781"
   inkscape:window-x="477"
   inkscape:window-y="25"
   inkscape:window-maximized="0"
   inkscape:current-layer="Capa_1" />
<g
   id="XMLID_76_"
   transform="matrix(2.4827683,0,0,2.4827683,5.5960598e-8,-2.807e-4)">
	<path
   id="XMLID_112_"
   style="fill:#fac176"
   d="M 57.645,35.568 C 56.393,33.823 55.353,33.409 51,35.698 l -8.674,5.301 c -0.99,0.527 -2.579,0.799 -4.34,0.934 0.002,0.023 0.014,0.044 0.014,0.066 0,0.553 -0.447,1 -1,1 H 20 c -3,0 -3,1.506 -3,2 0,0.553 -0.447,1 -1,1 -0.554,0 -1,-0.447 -1,-1 0,-2.504 1.869,-4 5,-4 h 14.236 c 0.535,-0.558 0.622,-1.418 -0.263,-2.738 -1.405,-2.099 -3.829,-3.29 -6.354,-3.29 h -3.901 c -2.274,0 -4.517,-0.676 -6.332,-2.044 C 13.149,29.733 5,29.999 5,29.999 v 24 h 14 c 1.997,0 3.992,-0.15 5.966,-0.451 L 38,51.567 c 0.444,0 0.877,-0.053 1.295,-0.146 0.007,-10e-4 0.014,-0.002 0.02,-0.003 1.056,-0.148 2.02,-0.682 2.789,-1.419 L 57.3,38.165 c 0.774,-0.641 0.931,-1.779 0.345,-2.597"
   inkscape:connector-curvature="0" />
	<path
   id="XMLID_111_"
   style="fill:#2c91d0"
   d="M 30.725,42.011 C 30.359,42.004 30.014,42 29.718,42 c 0,0 0.417,0.027 1.007,0.011"
   inkscape:connector-curvature="0" />
	<path
   id="XMLID_110_"
   style="fill:#e2ac69"
   d="m 15,45 c 0,0.552 0.447,1 1,1 0.553,0 1,-0.448 1,-1 0,-0.495 0,-2 3,-2 h 17 c 0.553,0 1,-0.448 1,-1 0,-0.024 -0.012,-0.043 -0.013,-0.066 -2.488,0.191 -5.309,0.108 -7.263,0.076 -0.59,0.019 -1.007,-0.01 -1.007,-0.01 0.296,0 0.642,0.005 1.007,0.01 1.083,-0.031 2.75,-0.216 3.512,-1.01 H 20 c -3.131,0 -5,1.495 -5,4"
   inkscape:connector-curvature="0" />
	<path
   id="XMLID_109_"
   style="fill:#e4af18"
   d="m 49,9 c 0,4.418 -3.582,8 -8,8 -4.418,0 -8,-3.582 -8,-8 0,-4.418 3.582,-8 8,-8 4.418,0 8,3.582 8,8"
   inkscape:connector-curvature="0" />
	<path
   id="XMLID_74_"
   style="fill:#e4af18"
   d="m 21.806,34.803 c 0.629,0.109 1.268,0.17 1.912,0.17 h 3.9 c 0.634,0 1.261,0.075 1.867,0.22 C 32.154,33.896 34,31.167 34,28 c 0,-4.418 -3.582,-8 -8,-8 -4.419,0 -8,3.582 -8,8 0,2.878 1.524,5.394 3.806,6.803"
   inkscape:connector-curvature="0" />
	<path
   id="XMLID_73_"
   style="fill:#fcc62d"
   d="m 30,28 c 0,2.209 -1.791,4 -4,4 -2.209,0 -4,-1.791 -4,-4 0,-2.209 1.791,-4 4,-4 2.209,0 4,1.791 4,4"
   inkscape:connector-curvature="0" />
	<path
   id="XMLID_72_"
   style="fill:#fcc62d"
   d="m 45,9 c 0,2.209 -1.791,4 -4,4 -2.209,0 -4,-1.791 -4,-4 0,-2.209 1.791,-4 4,-4 2.209,0 4,1.791 4,4"
   inkscape:connector-curvature="0" />
	<rect
   id="XMLID_75_"
   y="26.972"
   style="fill:#556180"
   width="5"
   height="30.028"
   x="0" />
</g>
<g
   id="g11"
   transform="translate(0,86)">
</g>
<g
   id="g13"
   transform="translate(0,86)">
</g>
<g
   id="g15"
   transform="translate(0,86)">
</g>
<g
   id="g17"
   transform="translate(0,86)">
</g>
<g
   id="g19"
   transform="translate(0,86)">
</g>
<g
   id="g21"
   transform="translate(0,86)">
</g>
<g
   id="g23"
   transform="translate(0,86)">
</g>
<g
   id="g25"
   transform="translate(0,86)">
</g>
<g
   id="g27"
   transform="translate(0,86)">
</g>
<g
   id="g29"
   transform="translate(0,86)">
</g>
<g
   id="g31"
   transform="translate(0,86)">
</g>
<g
   id="g33"
   transform="translate(0,86)">
</g>
<g
   id="g35"
   transform="translate(0,86)">
</g>
<g
   id="g37"
   transform="translate(0,86)">
</g>
<g
   id="g39"
   transform="translate(0,86)">
</g>
</svg>